<?xml version="1.0" encoding="utf-8"?>
<!-- Generator: Adobe Illustrator 15.0.0, SVG Export Plug-In . SVG Version: 6.00 Build 0)  -->
<!DOCTYPE svg PUBLIC "-//W3C//DTD SVG 1.1//EN" "http://www.w3.org/Graphics/SVG/1.1/DTD/svg11.dtd">
<svg version="1.1" id="Layer_1" xmlns="http://www.w3.org/2000/svg" xmlns:xlink="http://www.w3.org/1999/xlink" x="0px" y="0px"
	 width="100px" height="100px" viewBox="0 0 100 100" enable-background="new 0 0 100 100" xml:space="preserve">
<path fill="#010101" d="M74.212,29.207c-0.475-2.589,0.935-5.922-0.346-8.286c-1.235-2.28-4.771-2.932-6.752-4.815
	c-1.98-1.884-2.81-5.382-5.149-6.502c-2.424-1.16-5.683,0.416-8.291,0.072c-2.635-0.348-5.374-2.707-7.987-2.228
	c-2.589,0.475-4.309,3.643-6.671,4.923c-2.281,1.235-5.883,0.918-7.767,2.899s-1.386,5.563-2.505,7.902
	c-1.16,2.425-4.237,4.301-4.581,6.91c-0.348,2.635,2.146,5.251,2.625,7.866c0.475,2.588-0.935,5.921,0.346,8.285
	c1.235,2.28,4.772,2.932,6.752,4.816c1.98,1.883,2.81,5.381,5.149,6.502c2.424,1.16,5.683-0.416,8.292-0.071
	c2.635,0.348,5.373,2.706,7.987,2.227c2.589-0.476,4.308-3.642,6.671-4.923c2.281-1.234,5.884-0.918,7.768-2.898
	s1.386-5.563,2.504-7.902c1.16-2.424,4.238-4.301,4.582-6.91C77.185,34.437,74.691,31.82,74.212,29.207z M50.5,50.9
	c-9.567,0-17.323-7.756-17.323-17.324c0-9.567,7.756-17.324,17.323-17.324c9.568,0,17.325,7.756,17.325,17.324
	C67.824,43.144,60.068,50.9,50.5,50.9z"/>
<path fill="#010101" d="M54.592,62.227c-1.82,0-3.481-0.732-4.947-1.378c-0.976-0.43-1.896-0.836-2.639-0.934
	c-0.148-0.02-0.316-0.03-0.5-0.03c-0.652,0-1.427,0.121-2.248,0.248c-0.979,0.15-1.991,0.307-3.043,0.308
	c-1.233,0-2.293-0.221-3.241-0.675c-1.604-0.768-2.632-2.107-3.476-3.459l-4.694,32.746c-0.144,1.003,0.495,1.483,1.419,1.068
	l10.236-4.602c0.924-0.416,2.311-0.217,3.082,0.442l8.531,7.29c0.77,0.658,1.519,0.377,1.662-0.627l4.637-32.342
	c-1.016,0.848-2.178,1.574-3.613,1.838C55.38,62.191,54.988,62.227,54.592,62.227z"/>
<path fill="#010101" d="M68.142,55.587c-0.806,0.259-4.367,1.021-4.985,1.356c-0.297,0.161-0.604,0.391-0.918,0.66l-2.783,19.412
	c0.779,0.225,12.435,3.674,12.435,3.674c0.972,0.287,1.593-0.288,1.38-1.279L68.142,55.587z"/>
</svg>
