<svg xmlns="http://www.w3.org/2000/svg" xmlns:xlink="http://www.w3.org/1999/xlink" version="1.1" id="Layer_1" x="0px" y="0px" width="100px" height="100px" viewBox="5.0 -10.0 100.0 135.0" enable-background="new 0 0 100 100" xml:space="preserve">
<path d="M98,50C98,23.533,76.467,2,50,2S2,23.533,2,50c0,26.467,21.533,48,48,48S98,76.467,98,50z M59.508,50.692L41.876,68.325  c-0.191,0.191-0.441,0.287-0.692,0.287s-0.501-0.096-0.692-0.287c-0.383-0.383-0.383-1.003,0-1.385L57.431,50L40.491,33.06  c-0.383-0.383-0.383-1.002,0-1.385s1.002-0.383,1.385,0l17.632,17.633C59.891,49.69,59.891,50.31,59.508,50.692z"/>
<text x="0.0" y="117.5" font-size="5.0" font-weight="bold" font-family="Helvetica Neue, Helvetica, Arial-Unicode, Arial, Sans-serif" fill="#000000">Created by TukTuk Design</text><text x="0.0" y="122.5" font-size="5.0" font-weight="bold" font-family="Helvetica Neue, Helvetica, Arial-Unicode, Arial, Sans-serif" fill="#000000">from the Noun Project</text></svg>